<svg xmlns="http://www.w3.org/2000/svg" viewBox="0 0 71.73 71.73"><defs><style>.cls-1{fill:#3e5c9a;}.cls-2{fill:#fff;}</style></defs><title>Asset 4</title><g id="Layer_2" data-name="Layer 2"><g id="Capa_1" data-name="Capa 1"><g id="_Group_" data-name="&lt;Group&gt;"><path id="_Path_" data-name="&lt;Path&gt;" class="cls-1" d="M35.86,71.73h0A35.87,35.87,0,0,1,0,35.86H0A35.87,35.87,0,0,1,35.86,0h0A35.87,35.87,0,0,1,71.73,35.86h0A35.87,35.87,0,0,1,35.86,71.73Z"/><path id="_Path_2" data-name="&lt;Path&gt;" class="cls-2" d="M30.4,57.54h8.73V35.68h6.09l.65-7.32H39.13V24.19c0-1.73.35-2.41,2-2.41h4.73V14.19h-6c-6.49,0-9.42,2.86-9.42,8.33v5.84H25.86v7.41H30.4Z"/></g></g></g></svg>