<svg xmlns="http://www.w3.org/2000/svg" viewBox="0 0 71.73 71.73"><defs><style>.cls-1{fill:#df4b38;}.cls-2{fill:#fff;}</style></defs><title>Asset 3</title><g id="Layer_2" data-name="Layer 2"><g id="Capa_1" data-name="Capa 1"><g id="_Group_" data-name="&lt;Group&gt;"><path id="_Path_" data-name="&lt;Path&gt;" class="cls-1" d="M35.86,71.73h0A35.87,35.87,0,0,1,0,35.86H0A35.87,35.87,0,0,1,35.86,0h0A35.87,35.87,0,0,1,71.73,35.86h0A35.87,35.87,0,0,1,35.86,71.73Z"/><g id="_Group_2" data-name="&lt;Group&gt;"><path id="_Path_2" data-name="&lt;Path&gt;" class="cls-2" d="M40.35,34.93H25.86v4.15h9.77c-1.15,5.05-4.72,8.15-9.5,8.15a11.37,11.37,0,1,1,7.72-19.7l3.21-2.76A15.58,15.58,0,1,0,26.14,51.44c8.26,0,14.23-6.3,14.23-14.9Z"/><polygon id="_Path_3" data-name="&lt;Path&gt;" class="cls-2" points="61.17 35.1 55.19 35.1 55.19 29.12 51.37 29.12 51.37 35.1 45.39 35.1 45.39 38.92 51.37 38.92 51.37 44.9 55.19 44.9 55.19 38.92 61.17 38.92 61.17 35.1"/></g></g></g></g></svg>