<svg xmlns="http://www.w3.org/2000/svg" viewBox="0 0 71.73 71.73"><defs><style>.cls-1{fill:#29a9e1;}.cls-2{fill:#fff;}</style></defs><title>Asset 2</title><g id="Layer_2" data-name="Layer 2"><g id="Capa_1" data-name="Capa 1"><g id="_Group_" data-name="&lt;Group&gt;"><path id="_Path_" data-name="&lt;Path&gt;" class="cls-1" d="M35.86,71.73h0A35.87,35.87,0,0,1,0,35.86H0A35.87,35.87,0,0,1,35.86,0h0A35.87,35.87,0,0,1,71.73,35.86h0A35.87,35.87,0,0,1,35.86,71.73Z"/><path id="_Path_2" data-name="&lt;Path&gt;" class="cls-2" d="M16.76,47.87a22.22,22.22,0,0,0,12,3.52c14.56,0,22.78-12.29,22.29-23.32A16.05,16.05,0,0,0,55,24a15.55,15.55,0,0,1-4.5,1.23,7.77,7.77,0,0,0,3.44-4.33,15.58,15.58,0,0,1-5,1.9A7.84,7.84,0,0,0,35.58,30a22.26,22.26,0,0,1-16.16-8.19,7.85,7.85,0,0,0,2.42,10.47,7.91,7.91,0,0,1-3.55-1A7.84,7.84,0,0,0,24.58,39a7.92,7.92,0,0,1-3.54.14,7.84,7.84,0,0,0,7.32,5.44A15.73,15.73,0,0,1,16.76,47.87Z"/></g></g></g></svg>